# xmcd CD database file
#
# Track frame offsets:
#	150
#	13382
#	32558
#	51358
#	68659
#	88230
#	101262
#	116280
#	126498
#	141701
#	156606
#	173585
#	184777
#	197148
#
# Disc length: 2771 seconds
#
# Revision: 0
# Processed by: cddbd v1.5.2PL0 Copyright (c) Steve Scherf et al.
# Submitted via: CDex 1.51
#
DISCID=cd0ad10e
DTITLE=Tom Astor - Lieder zum Anfassen
DYEAR=2015
DGENRE=Country
TTITLE0=Nutz die Zeit
TTITLE1=Wär ich ein Buch (If You Could Read My Mind)
TTITLE2=Hallo Old Germany, wie gehts dir
TTITLE3=Verrückt sein und sonst gar nichts
TTITLE4=Strassen unserer Stadt (Streets of London)
TTITLE5=Alles ist möglich, alles ist drin
TTITLE6=Brandy
TTITLE7=Wie die Schwalben (Snowbird)
TTITLE8=Sie war jung und frei
TTITLE9=Geisterreiter ((Ghost)Riders in the Sky)
TTITLE10=Die Hoffnung lebt (Amazing Grace)
TTITLE11=Ja, das sind Stunden (die vergisst man nie)
TTITLE12=Stolze Tage (Cherry Tree Carol)
TTITLE13=Vielen Dank für das freundliche Getue
EXTD=YEAR: 2015
EXTT0=
EXTT1=
EXTT2=
EXTT3=
EXTT4=
EXTT5=
EXTT6=
EXTT7=
EXTT8=
EXTT9=
EXTT10=
EXTT11=
EXTT12=
EXTT13=
PLAYORDER=
